<?xml version="1.0" standalone="no"?>
<!DOCTYPE svg PUBLIC "-//W3C//DTD SVG 20010904//EN"
 "http://www.w3.org/TR/2001/REC-SVG-20010904/DTD/svg10.dtd">
<svg version="1.0" xmlns="http://www.w3.org/2000/svg"
 width="160.000000pt" height="160.000000pt" viewBox="0 0 160.000000 160.000000"
 preserveAspectRatio="xMidYMid meet">
<metadata>
Created by potrace 1.11, written by Peter Selinger 2001-2013
</metadata>
<g transform="translate(0.000000,160.000000) scale(0.100000,-0.100000)"
fill="#000000" stroke="none">
<path d="M642 1427 c-15 -4 -47 -10 -72 -13 -25 -3 -63 -14 -85 -24 -22 -10
-59 -25 -82 -32 -48 -15 -128 -72 -188 -135 -37 -38 -71 -94 -110 -183 -9 -19
-22 -46 -30 -60 -18 -32 -27 -112 -26 -223 0 -70 5 -94 20 -115 10 -15 21 -37
25 -48 4 -12 15 -29 26 -39 13 -12 17 -23 11 -38 -19 -55 14 -144 71 -192 42
-36 82 -52 144 -60 27 -4 69 -12 94 -19 25 -7 59 -11 76 -9 29 4 30 2 26 -30
-5 -42 17 -62 70 -62 35 0 46 7 91 55 29 30 62 68 74 84 18 22 33 29 69 33 85
7 128 44 140 121 l6 40 57 -26 c94 -43 230 -36 333 19 13 6 44 34 70 60 38 38
53 64 74 126 14 43 26 98 26 123 2 60 -18 158 -37 186 -8 13 -15 33 -15 44 0
24 -27 80 -38 80 -4 0 -13 12 -19 28 -36 81 -198 235 -267 253 -23 5 -66 18
-96 29 -30 10 -86 21 -125 25 -98 10 -280 11 -313 2z"/>
</g>
</svg>
